<?xml version="1.0" encoding="UTF-8" standalone="no"?>
<!-- Created with Inkscape (http://www.inkscape.org/) -->

<svg
   version="1.1"
   id="svg1"
   width="245.0674"
   height="288.08493"
   viewBox="0 0 245.0674 288.08493"
   sodipodi:docname="Premium_minimalist_developer_logo_2K_202607122317.jpeg"
   xmlns:inkscape="http://www.inkscape.org/namespaces/inkscape"
   xmlns:sodipodi="http://sodipodi.sourceforge.net/DTD/sodipodi-0.dtd"
   xmlns="http://www.w3.org/2000/svg"
   xmlns:svg="http://www.w3.org/2000/svg">
  <defs
     id="defs1" />
  <sodipodi:namedview
     id="namedview1"
     pagecolor="#ffffff"
     bordercolor="#000000"
     borderopacity="0.25"
     inkscape:showpageshadow="2"
     inkscape:pageopacity="0.0"
     inkscape:pagecheckerboard="0"
     inkscape:deskcolor="#d1d1d1">
    <inkscape:page
       x="0"
       y="0"
       width="245.0674"
       height="288.08493"
       id="page2"
       margin="0"
       bleed="0" />
  </sodipodi:namedview>
  <g
     inkscape:groupmode="layer"
     inkscape:label="Image"
     id="g1"
     transform="translate(-226.93089,-156.79048)">
    <path
       id="path1"
       style="fill:#000000"
       d="m 282.34992,156.79328 c -2.45429,-0.0277 -4.85828,0.14973 -6.86133,0.5332 -8.33908,1.59649 -16.51048,6.02873 -23.5,12.74805 -6.78061,6.51849 -10.2706,11.53185 -15.70313,22.55078 -3.22876,6.54898 -3.84563,7.58426 -5.28125,8.875 -0.89399,0.80378 -2.18777,1.63003 -2.875,1.83593 -1.47261,0.44121 -1.57879,0.80594 -0.36914,1.26172 5.62458,2.11924 10.46985,7.29049 12.25977,13.08399 0.75143,2.43217 1.37958,2.4632 2.06055,0.10547 1.45257,-5.02918 5.23326,-9.72453 9.86718,-12.25586 1.7704,-0.9671 2.38197,-1.44927 2.08008,-1.64063 -0.23517,-0.14907 -0.66096,-0.27239 -0.94531,-0.27539 -1.26385,-0.012 -5.09721,-2.33133 -6.63477,-4.01367 -2.0434,-2.23579 -2.74553,-4.2335 -2.5332,-7.20117 0.28311,-3.95671 2.43091,-6.89269 6.45312,-8.82617 3.39119,-1.63014 6.3043,-2.16192 10.7168,-1.95313 4.6532,0.22019 6.43917,0.72778 15.67578,4.45313 14.70718,5.93175 18.14968,6.79203 27.23828,6.80273 6.80113,0.008 9.00423,-0.31281 14.56055,-2.11523 2.88934,-0.93728 9.66925,-4.116 12.96094,-6.07813 l 1.75976,-1.04883 -1.5332,1.74805 c -12.26796,13.98025 -19.05598,23.57265 -24.78515,35.02734 -4.33888,8.67496 -7.3202,17.15538 -9.04688,25.74414 -1.73152,8.61292 -2.03239,12.03157 -2.05469,23.29493 -0.0112,5.67595 -0.0476,10.32027 -0.0801,10.32031 -0.0325,3e-5 -1.04072,-0.20492 -2.24023,-0.45508 -14.40926,-3.00505 -27.70938,3.7074 -35.0918,17.70898 -0.81896,1.55324 -1.48828,2.89779 -1.48828,2.98829 0,0.0905 0.3549,0.39717 0.78906,0.68164 0.76271,0.49974 0.86521,0.4691 3.02149,-0.92579 2.91933,-1.8885 4.6011,-2.58725 7.78515,-3.23242 6.92756,-1.4037 14.92398,1.01674 20.41016,6.17774 4.98457,4.68913 7.98734,10.7762 9.42383,19.09961 0.43515,2.52152 0.65581,6.13329 0.39062,6.27343 -0.003,0.001 -0.0103,0.004 -0.0137,0.004 h -0.002 c -0.0636,0 -1.04516,-0.42113 -2.17969,-0.93555 -3.59584,-1.63044 -5.72805,-2.02805 -10.02539,-1.86718 -4.30626,0.1612 -6.64742,0.85644 -9.89453,2.93359 -1.87905,1.20201 -5.56536,4.80026 -6.27539,6.12695 -0.69981,1.30762 -0.13298,1.50796 3.00195,1.05469 3.27921,-0.47412 5.63587,-0.12107 8.6875,1.30078 9.21886,4.29536 14.87896,15.68923 14.87696,29.94727 -10e-4,9.53568 -2.17807,17.99274 -7.22461,28.07226 -7.15912,14.29898 -16.71112,25.6277 -33.89063,40.1875 -2.816,2.38659 -5.17644,4.37999 -5.24414,4.42969 -0.18936,0.13898 0.5596,1.78307 1.18359,2.59961 l 0.55665,0.73047 3.67187,-2.2832 c 20.3547,-12.65464 37.12786,-19.30571 57.11719,-22.64844 8.70411,-1.45554 12.70775,-1.79247 20.95312,-1.76367 8.01443,0.028 12.49599,0.44029 20.32032,1.86914 19.79493,3.61489 42.20914,13.88199 53.24414,24.39062 1.51638,1.44405 2.8489,2.63263 2.96093,2.64063 0.12348,-0.008 1.0286,-0.99386 2.01953,-2.20508 2.39291,-2.92485 6.70884,-7.0378 13.94336,-13.28516 9.2679,-8.00327 17.43375,-15.45016 21.29102,-19.41601 8.16041,-8.3901 13.28815,-16.19724 16.58594,-25.25977 2.33395,-6.41383 3.0735,-7.51885 5.79882,-8.64844 0.95064,-0.394 1.73171,-0.82178 1.75586,-0.95898 1e-4,-0.001 0,-0.005 0,-0.006 0,-0.12996 -0.5115,-0.4063 -1.13867,-0.61328 -1.82708,-0.60299 -5.68872,-3.35675 -7.54687,-5.38281 -2.08882,-2.27756 -3.59964,-4.75933 -4.54297,-7.45899 -0.39047,-1.11745 -0.83894,-2.0755 -0.99609,-2.1289 -0.15717,-0.0535 -0.52166,0.66785 -0.81055,1.60156 -1.55299,5.01927 -5.91327,10.46204 -10.16406,12.6875 -1.1,0.57589 -2,1.17057 -2,1.32226 0,0.1517 0.46901,0.37725 1.04101,0.50196 2.06876,0.45105 4.43529,1.74386 6.12695,3.34375 7.43378,7.03056 2.68412,20.53099 -9.24804,26.28711 -5.88105,2.83704 -12.62795,2.92192 -19.85157,0.25 -1.04993,-0.38836 -4.21134,-1.78049 -7.02734,-3.09375 -17.18529,-8.01451 -26.94461,-11.11725 -40.1875,-12.77539 -5.4823,-0.68645 -20.57898,-0.77514 -25.73437,-0.15235 -8.76361,1.05868 -17.17525,2.97258 -26.35157,5.99805 -3.41479,1.12587 -6.2699,2.04687 -6.3457,2.04687 -0.0758,0 0.77083,-0.82468 1.88086,-1.83398 17.93561,-16.30799 34.54602,-38.29833 43.26758,-57.27735 8.0867,-17.5975 11.48652,-34.54378 11.92383,-59.44726 0.17322,-9.86424 -0.006,-14.98142 -1.36914,-39.20117 -0.59533,-10.58029 -0.44831,-23.6874 0.33789,-30.24024 1.52586,-12.71776 4.67897,-22.56354 9.64453,-30.11132 2.28594,-3.47468 8.31181,-9.60064 11.54687,-11.73828 4.70874,-3.11141 10.55686,-5.54526 16.02539,-6.66797 l 2,-0.41016 v -1.53516 c 0,-1.82506 0.25694,-1.77535 -5.33007,-1.04296 -16.52282,2.16595 -31.16609,9.1539 -42.20704,20.14453 -13.18315,13.12307 -19.86653,29.4043 -21.61132,52.64257 -0.50307,6.70015 -0.19166,23.552 0.6289,34.08008 0.35665,4.576 0.81559,11.41522 1.01953,15.19922 0.49882,9.25586 0.50854,29.32251 0.0176,35.67969 -2.13288,27.61769 -9.34366,48.22414 -23.625,67.51953 -5.47197,7.39314 -12.51969,14.87224 -17.61328,18.68945 -2.2756,1.70537 -10.65961,6.83649 -10.85352,6.64258 -0.0625,-0.0625 1.43574,-2.18828 3.33008,-4.72461 17.9466,-24.02878 27.99257,-48.37781 31.44531,-76.2168 1.67711,-13.52226 1.55397,-20.84935 -0.85156,-50.63086 -1.38588,-17.15775 -1.50024,-19.40529 -1.52344,-29.75976 -0.0265,-11.85732 0.1964,-15.17659 1.59961,-23.67969 2.61135,-15.82401 8.65281,-30.00838 18.5293,-43.50976 3.79017,-5.18125 6.24221,-7.99578 12.07031,-13.85156 l 5.4961,-5.52344 -1.08399,-1.11719 c -0.59592,-0.61483 -1.2058,-1.11719 -1.35547,-1.11719 -0.14966,0 -1.95581,1.13429 -4.01562,2.52149 -4.58161,3.08551 -7.91713,4.77989 -11.90625,6.04687 -5.16869,1.64163 -6.4621,1.82622 -12.79883,1.82422 -8.69606,-0.002 -11.4449,-0.67306 -27.20117,-6.64062 -8.65072,-3.2764 -10.45775,-3.8445 -15.12695,-4.75782 -2.20356,-0.43103 -4.70783,-0.66366 -7.16211,-0.6914 z"
       inkscape:export-filename="../Files/Projects/portfolio/src/assets/Logos/Logo.png"
       inkscape:export-xdpi="96"
       inkscape:export-ydpi="96" />
  </g>
</svg>
